<?xml version="1.0" standalone="no"?>
<!DOCTYPE svg PUBLIC "-//W3C//DTD SVG 20010904//EN"
 "http://www.w3.org/TR/2001/REC-SVG-20010904/DTD/svg10.dtd">
<svg version="1.0" xmlns="http://www.w3.org/2000/svg"
 width="700.000000pt" height="700.000000pt" viewBox="0 0 700.000000 700.000000"
 preserveAspectRatio="xMidYMid meet">
<metadata>
Created by potrace 1.14, written by Peter Selinger 2001-2017
</metadata>
<g transform="translate(0.000000,700.000000) scale(0.100000,-0.100000)"
fill="#000000" stroke="none">
<path d="M0 3501 l0 -3501 3500 0 3500 0 0 3500 0 3500 -299 0 c-230 0 -300
-3 -303 -12 -2 -7 -3 -600 -3 -1319 l1 -1305 -30 -2 c-43 -4 -58 -22 -21 -24
17 0 35 -1 41 -1 7 0 10 -123 10 -389 0 -327 -2 -388 -14 -383 -7 3 -22 5 -33
5 -10 0 -19 7 -19 15 0 9 -7 18 -15 21 -8 4 -15 17 -15 30 0 17 -7 25 -25 30
-24 6 -30 32 -6 27 18 -5 13 11 -8 24 -13 8 -18 20 -16 35 3 12 -2 32 -10 45
-8 12 -12 29 -9 37 4 9 -1 18 -10 22 -11 4 -16 18 -16 43 0 20 -7 47 -16 60
-12 16 -15 34 -10 63 5 29 3 44 -6 50 -10 6 -10 10 -1 16 13 8 6 55 -7 47 -5
-3 -11 -1 -15 5 -3 5 7 22 22 36 18 18 24 28 16 31 -7 3 -13 11 -13 19 0 8 -4
14 -10 14 -5 0 -10 5 -10 10 0 6 7 10 14 10 12 0 13 6 4 31 -8 24 -8 33 3 40
10 6 9 9 -6 14 -69 23 -96 57 -78 97 6 14 6 35 1 53 -4 17 -5 49 -2 72 3 24 3
59 -1 79 -6 33 -7 35 -20 18 -13 -18 -14 -17 -25 11 -9 24 -8 35 5 58 18 30
12 67 -11 67 -26 0 -15 19 14 22 22 2 26 7 23 28 -1 14 -9 36 -16 50 -13 24
-17 25 -97 25 -80 -1 -128 9 -128 27 0 5 22 8 50 7 28 -1 56 3 65 11 17 14 20
30 5 30 -19 0 -50 40 -50 64 0 13 -7 29 -15 36 -9 7 -13 15 -11 18 10 9 -15
42 -31 42 -14 0 -14 3 2 20 17 18 17 20 2 14 -22 -8 -89 4 -83 15 3 4 -1 17
-9 27 -20 27 -18 34 8 34 19 1 20 2 5 10 -9 6 -19 29 -23 52 -4 24 -14 52 -21
64 -8 12 -12 28 -9 36 4 9 -1 22 -9 31 -9 9 -16 25 -16 36 0 12 -5 21 -11 21
-6 0 -9 7 -5 15 3 8 0 15 -6 15 -7 0 -3 7 8 16 10 8 14 13 9 10 -6 -2 -25 2
-42 11 -28 13 -31 18 -26 48 5 31 4 33 -17 28 -17 -5 -21 -3 -15 6 4 7 2 23
-5 36 -13 24 -37 26 -127 11 -25 -5 -49 -3 -60 3 -15 9 -13 10 13 11 41 0 107
28 99 41 -4 5 -14 9 -23 8 -16 -2 -111 15 -157 28 l-20 6 20 7 c11 4 26 3 33
-3 9 -7 16 -7 24 1 8 8 17 8 30 1 25 -14 24 6 -2 24 -23 16 -17 52 7 43 8 -3
24 -6 35 -6 12 0 18 -5 16 -12 -2 -7 9 -25 24 -40 24 -23 28 -24 33 -8 13 40
-32 76 -107 86 -24 3 -58 15 -76 26 -38 23 -91 31 -109 16 -10 -8 -13 -5 -13
10 0 15 -5 20 -15 16 -10 -4 -15 0 -15 16 0 11 -4 18 -10 15 -5 -3 -10 -2 -10
4 0 5 -10 11 -22 13 -13 2 -22 8 -21 13 5 17 52 13 75 -6 11 -11 31 -19 42
-19 12 0 52 -9 89 -19 87 -25 107 -19 68 19 -28 28 -91 48 -91 28 0 -6 -6 -6
-15 2 -8 7 -12 17 -9 22 4 6 -6 2 -21 -8 -27 -18 -28 -18 -21 4 8 24 -8 31
-18 7 -8 -21 -35 -19 -30 3 5 18 -29 38 -76 44 -14 2 -28 7 -31 11 -3 4 -18
10 -34 13 -22 4 -26 2 -21 -11 3 -9 2 -13 -4 -10 -25 15 -7 -16 23 -39 26 -21
30 -29 21 -43 -17 -29 -6 -50 49 -93 46 -37 49 -41 29 -47 -21 -5 -21 -6 -5
-18 15 -11 19 -11 25 3 6 15 7 15 7 1 1 -9 11 -19 22 -22 14 -4 20 -11 16 -20
-4 -10 4 -19 23 -27 16 -7 35 -18 41 -26 12 -14 -1 -14 -79 2 -20 4 -22 2 -12
-16 6 -11 16 -20 22 -20 6 0 9 -3 6 -6 -8 -8 -147 39 -148 50 0 4 11 5 25 2
14 -3 37 -9 53 -12 26 -5 26 -5 8 10 -11 9 -25 16 -32 16 -7 0 -15 8 -18 18
-9 27 -64 53 -145 68 -51 10 -84 23 -110 43 -20 16 -45 31 -56 33 -19 5 -18 6
4 15 l24 9 -34 20 c-19 11 -52 25 -75 32 -22 6 -51 23 -64 37 -26 28 -45 33
-36 10 3 -9 -19 1 -49 22 -32 22 -53 44 -52 53 2 8 8 14 14 13 13 -3 7 26 -10
47 -7 8 -32 28 -56 45 -24 16 -46 35 -48 42 -3 7 -32 28 -64 46 -33 19 -57 36
-53 39 3 3 -15 20 -40 38 -48 32 -96 79 -96 93 0 4 -15 22 -33 40 -99 94 -138
127 -176 146 -23 12 -39 26 -37 30 3 5 -8 7 -24 6 -17 -1 -33 1 -36 6 -3 5
-14 9 -24 9 -17 0 -18 6 -14 50 4 43 3 49 -12 43 -14 -5 -15 -3 -5 16 11 19 8
23 -18 39 -32 18 -40 37 -18 45 6 3 2 6 -10 6 -13 1 -23 5 -23 10 0 5 -9 7
-19 4 -11 -3 -36 0 -56 7 -31 10 -40 10 -52 -3 -13 -13 -11 -17 13 -36 l27
-22 -31 3 c-18 1 -32 6 -32 11 0 11 -103 1 -107 -10 -13 -35 -32 -58 -51 -61
-12 -2 -22 -7 -22 -11 0 -4 -18 -16 -40 -26 -28 -13 -42 -26 -47 -44 -9 -39
-22 -52 -42 -41 -15 7 -17 5 -13 -21 3 -23 1 -28 -11 -23 -10 3 -18 -2 -22
-15 -3 -12 -11 -21 -18 -21 -6 0 2 -13 18 -30 27 -28 24 -45 -3 -18 -9 9 -15
9 -24 0 -19 -19 -28 -14 -28 12 0 16 -7 27 -21 31 -35 11 -113 100 -102 117 3
6 10 5 16 -1 11 -11 47 -16 47 -6 0 2 -9 19 -20 37 -25 42 -25 48 3 49 12 0
16 3 10 6 -7 2 -28 20 -47 39 l-34 34 28 0 c16 0 32 5 35 10 3 6 11 10 16 10
6 0 7 -5 3 -12 -5 -8 -2 -9 10 -5 10 4 22 7 26 7 5 0 -1 10 -14 23 -21 21 -33
23 -150 25 l-127 3 7 -28 c3 -15 7 -34 10 -40 2 -7 -1 -13 -6 -13 -5 0 -13 18
-16 40 -4 24 -11 39 -18 37 -6 -2 -10 -11 -8 -19 2 -14 -2 -14 -39 -1 -37 12
-51 12 -123 -3 -44 -9 -93 -25 -107 -35 -14 -10 -29 -16 -33 -12 -3 3 -6 1 -6
-6 0 -7 -4 -10 -9 -6 -6 3 -27 -4 -48 -16 -99 -56 -145 -79 -157 -79 -8 0 -26
-13 -39 -30 -14 -16 -32 -30 -39 -30 -16 0 -72 -34 -101 -61 -12 -11 -39 -30
-60 -40 -23 -12 -44 -34 -54 -54 -9 -19 -20 -35 -24 -35 -9 0 -119 -136 -119
-147 0 -4 -12 -16 -28 -27 -30 -21 -92 -97 -116 -144 -9 -17 -23 -35 -31 -40
-9 -4 -17 -19 -19 -33 -5 -42 -23 -73 -67 -114 -40 -37 -92 -98 -112 -131 -4
-8 -13 -14 -20 -14 -7 0 -17 -8 -22 -18 -25 -46 -54 -88 -97 -145 -29 -37 -43
-64 -36 -68 7 -5 7 -9 -1 -13 -6 -4 -11 -18 -11 -32 0 -13 -4 -24 -9 -24 -8 0
-27 -40 -23 -47 2 -4 -38 -113 -60 -161 -10 -23 -27 -48 -38 -55 -11 -6 -20
-23 -20 -37 0 -23 -21 -51 -110 -147 -20 -20 -30 -42 -30 -62 0 -16 -7 -60
-16 -98 -9 -37 -17 -72 -18 -78 -1 -5 -7 -19 -12 -30 -6 -11 -19 -47 -30 -80
-14 -46 -31 -73 -73 -115 -53 -52 -55 -56 -57 -115 -15 -345 -16 -354 -37
-367 -6 -3 -12 -28 -14 -55 -5 -71 -8 -95 -15 -123 -12 -44 -18 -160 -9 -160
13 0 22 -102 10 -116 -6 -8 -14 -13 -17 -12 -18 2 -30 -4 -50 -22 -19 -18 -20
-24 -10 -48 18 -41 27 -49 38 -32 7 11 10 6 10 -19 0 -22 -10 -47 -27 -70 -27
-35 -60 -71 -66 -71 -1 0 -2 679 -2 1509 0 1386 2 1511 17 1528 9 10 21 37 27
59 6 23 24 57 41 75 24 27 30 43 30 80 0 33 5 49 16 53 8 3 13 10 10 14 -15
24 140 76 289 98 22 4 47 10 56 15 9 4 19 5 23 2 3 -3 6 -2 6 3 0 5 12 11 28
12 15 1 58 9 97 18 50 13 64 19 50 24 -11 4 -309 8 -662 9 l-643 2 0 -3500z
m3765 3379 c3 -5 1 -10 -4 -10 -6 0 -11 5 -11 10 0 6 2 10 4 10 3 0 8 -4 11
-10z m35 -74 c0 -3 -4 -8 -10 -11 -5 -3 -10 -1 -10 4 0 6 5 11 10 11 6 0 10
-2 10 -4z m-946 -221 c11 -8 18 -17 15 -19 -2 -2 -15 4 -28 15 -27 22 -15 26
13 4z m460 -400 c-7 -16 -24 -21 -24 -6 0 8 7 13 27 20 1 1 0 -6 -3 -14z m-72
-17 c3 -23 17 -27 51 -13 12 5 17 2 17 -10 0 -12 5 -15 16 -11 9 3 22 6 29 6
8 0 17 9 20 21 6 18 12 19 58 14 29 -4 54 -8 57 -10 3 -2 26 -6 50 -10 25 -4
47 -10 50 -14 10 -16 52 -32 67 -27 8 3 29 -1 46 -9 18 -8 42 -16 54 -18 11
-2 27 -8 35 -14 7 -5 25 -13 41 -17 15 -3 27 -11 27 -16 0 -5 -6 -7 -12 -5
-22 7 -119 13 -113 7 3 -3 15 -7 27 -9 25 -4 38 -20 31 -39 -4 -11 21 -25 52
-30 6 -1 12 -3 15 -4 24 -9 50 -8 50 2 0 7 7 3 15 -8 8 -13 30 -24 54 -28 53
-8 91 -26 91 -42 0 -8 6 -11 15 -8 18 7 20 -7 3 -24 -9 -9 -9 -12 0 -12 7 0
12 5 12 10 0 6 6 10 13 10 8 0 19 11 25 25 6 14 16 25 22 25 6 0 9 -4 6 -8 -9
-15 32 -72 48 -66 8 3 17 1 21 -5 3 -7 0 -8 -9 -5 -9 3 -16 3 -16 -1 0 -14 85
-88 105 -92 10 -2 31 -11 45 -21 14 -9 39 -19 55 -22 25 -4 30 -10 33 -37 3
-35 18 -42 36 -18 14 18 35 4 65 -45 11 -19 21 -31 21 -25 0 5 7 -1 16 -13 8
-12 22 -22 29 -22 8 0 22 -12 32 -27 10 -16 30 -39 45 -53 33 -31 67 -104 68
-146 0 -23 4 -31 17 -30 11 1 20 -11 26 -34 l11 -35 6 35 c4 19 8 31 9 25 2
-5 4 -21 7 -35 5 -31 35 -100 43 -100 4 0 15 -23 26 -51 11 -30 28 -54 38 -57
11 -3 17 -15 18 -33 2 -50 4 -54 19 -54 8 0 16 -9 18 -20 8 -53 14 -67 37 -77
14 -6 25 -15 25 -20 0 -4 11 -31 25 -60 15 -30 24 -67 23 -89 -1 -21 4 -45 11
-53 10 -12 9 -17 -6 -26 -16 -10 -16 -11 0 -6 19 6 22 -15 18 -128 -1 -44 3
-64 16 -78 11 -12 18 -38 20 -70 1 -31 8 -57 19 -69 17 -18 16 -20 -1 -33 -18
-13 -18 -14 3 -32 12 -10 22 -28 22 -39 0 -12 7 -44 14 -71 19 -63 26 -98 30
-154 6 -70 14 -118 21 -130 4 -6 9 -46 11 -88 2 -42 6 -99 9 -125 3 -31 2 -46
-5 -42 -5 3 -10 1 -10 -4 0 -6 4 -11 8 -11 15 0 5 -142 -16 -230 -11 -47 -23
-105 -26 -128 -4 -24 -18 -70 -31 -103 -14 -32 -25 -71 -25 -87 0 -15 -4 -32
-9 -37 -6 -6 -26 -53 -46 -105 -27 -69 -37 -110 -37 -151 0 -47 -4 -61 -23
-79 -17 -16 -22 -30 -20 -61 2 -27 -2 -42 -11 -46 -8 -3 -14 -11 -14 -18 0 -8
-12 -27 -26 -44 -20 -24 -27 -45 -31 -94 -2 -34 -8 -71 -13 -82 -24 -54 -47
-153 -44 -188 4 -33 2 -38 -12 -33 -13 5 -15 1 -12 -25 3 -20 0 -33 -9 -36 -7
-3 -13 -14 -13 -24 0 -10 -4 -19 -10 -19 -5 0 -10 -4 -10 -10 0 -5 7 -10 15
-10 38 0 72 -79 45 -106 -5 -5 -11 -30 -13 -54 -3 -33 -8 -46 -21 -48 -9 -2
-19 -16 -23 -33 -4 -24 -8 -27 -20 -18 -19 16 -24 8 -29 -43 -5 -49 -44 -138
-74 -168 -16 -16 -25 -19 -35 -10 -7 6 -25 8 -39 4 -23 -6 -26 -3 -27 22 0 24
-2 26 -8 10 -7 -18 -9 -16 -19 11 -5 17 -8 34 -5 37 4 3 2 6 -4 6 -6 0 -16
-14 -23 -30 -12 -28 -16 -30 -44 -24 -17 3 -34 11 -38 17 -4 7 -11 1 -17 -15
-12 -31 -46 -54 -56 -37 -4 6 -17 8 -30 5 -15 -4 -25 -1 -29 9 -4 10 1 15 14
15 24 0 27 42 5 80 -8 14 -15 50 -15 80 -1 66 -24 123 -74 178 -20 21 -36 44
-36 49 0 14 -39 53 -52 53 -9 0 -9 -3 0 -12 36 -36 -32 -39 -88 -3 -22 14 -44
25 -50 25 -5 0 -10 5 -10 10 0 6 -7 10 -15 10 -8 0 -15 -7 -15 -15 0 -22 -48
-9 -78 21 -19 19 -28 21 -48 13 -28 -10 -64 3 -64 23 0 15 -43 78 -52 78 -5 0
-8 -10 -9 -22 0 -19 -3 -17 -12 9 -9 25 -15 30 -27 23 -12 -8 -12 -11 3 -28
23 -25 21 -32 -7 -32 -14 0 -38 11 -54 25 -17 14 -47 32 -69 41 -100 40 -113
48 -123 84 -17 60 -14 67 52 99 33 17 67 31 74 31 6 0 26 13 43 29 25 23 31
37 31 69 0 34 -3 39 -22 39 -54 1 -65 5 -98 34 -51 44 -290 160 -309 150 -9
-5 -37 -7 -63 -5 -30 1 -58 -4 -79 -15 -26 -14 -39 -16 -61 -7 -15 6 -28 17
-28 25 0 8 -3 11 -7 8 -3 -4 -13 -1 -22 6 -24 21 -50 27 -57 15 -4 -7 -10 -6
-16 3 -7 10 -11 11 -14 3 -3 -8 -28 -11 -72 -8 -56 3 -72 0 -107 -20 -46 -27
-105 -81 -105 -96 0 -6 -5 -10 -11 -10 -6 0 -26 -15 -44 -33 -32 -32 -34 -39
-36 -106 -1 -39 1 -74 5 -78 3 -3 29 -6 56 -5 28 0 50 -3 50 -9 0 -5 7 -9 17
-9 22 0 11 -10 -17 -15 -13 -2 -33 -13 -44 -24 -12 -11 -52 -34 -89 -52 -45
-21 -66 -36 -63 -45 6 -14 -38 -54 -60 -54 -7 0 -22 -9 -32 -21 -29 -31 -83
-56 -135 -64 -45 -7 -47 -6 -47 17 0 33 -9 40 -34 26 -11 -7 -27 -13 -35 -14
-7 -2 -23 -12 -35 -23 -19 -18 -25 -19 -41 -7 -16 12 -21 11 -33 -1 -22 -22
-54 5 -73 63 -9 28 -18 43 -21 34 -6 -19 -38 39 -38 70 0 11 -4 20 -10 20 -5
0 -10 8 -10 18 0 26 -30 114 -46 132 -16 20 -32 107 -33 195 -1 26 -4 35 -10
27 -6 -10 -10 -8 -14 10 -10 35 -8 60 3 53 6 -4 10 7 10 24 0 20 -5 31 -14 31
-8 0 -17 14 -21 33 -3 17 -11 44 -16 58 -9 23 -15 57 -18 102 0 10 -5 16 -10
13 -4 -3 -6 6 -3 20 2 14 -2 32 -11 42 -13 15 -30 55 -83 195 -8 21 -10 36 -5
33 5 -4 12 -2 16 4 3 6 0 12 -7 15 -9 3 -12 21 -11 53 1 26 3 86 5 133 2 48 6
85 11 82 4 -2 7 -13 7 -23 0 -34 15 -29 18 7 1 19 7 43 12 53 6 10 10 28 10
40 0 12 5 18 10 15 6 -3 10 3 10 14 0 23 19 39 29 23 3 -5 15 -12 26 -14 11
-2 19 -10 17 -17 -2 -8 4 -10 16 -7 25 8 181 -55 190 -76 2 -5 10 -8 17 -8 7
0 15 -5 17 -10 2 -6 16 -13 33 -16 16 -3 34 -9 40 -14 5 -4 25 -10 43 -13 18
-3 44 -13 57 -21 36 -24 85 -19 161 15 78 36 178 48 188 24 6 -18 63 -20 68
-3 6 18 55 1 61 -23 3 -12 -3 -38 -15 -60 -16 -32 -18 -42 -8 -54 16 -20 28
-19 33 3 3 9 5 -4 6 -30 1 -36 6 -50 20 -58 27 -14 41 -13 41 5 0 7 8 18 17
24 17 9 17 10 0 28 -25 28 -21 47 18 103 19 27 35 55 35 61 0 7 18 36 41 66
43 58 69 110 69 142 0 11 6 26 13 33 7 7 13 30 14 51 1 21 6 44 12 50 10 13
14 33 26 124 4 29 15 69 26 90 10 20 19 42 19 48 0 20 38 86 64 110 33 30 78
40 110 23 39 -21 106 -87 107 -106 6 -160 11 -208 28 -270 20 -76 57 -142 79
-142 6 0 12 -4 12 -9 0 -10 105 -61 126 -61 7 0 25 -11 40 -24 23 -19 33 -22
63 -15 66 14 164 15 169 1 2 -7 0 -12 -5 -11 -4 1 -16 1 -26 0 -27 -2 -10 -21
19 -21 14 0 24 -6 24 -14 0 -8 12 -24 26 -35 28 -22 55 -17 101 19 17 13 31
17 46 11 12 -5 28 -6 35 -4 7 3 33 -7 58 -22 45 -27 46 -27 67 -8 35 31 146
60 158 41 3 -5 26 2 50 17 24 14 56 31 72 38 34 14 35 27 2 27 -14 0 -25 4
-25 10 0 5 23 33 50 62 28 29 55 70 62 91 15 48 34 42 30 -10 -2 -34 1 -41 23
-51 38 -17 51 -15 82 14 l28 25 -30 -6 -30 -6 33 22 c19 12 48 22 65 21 18 0
42 5 54 13 16 11 23 12 26 2 3 -6 6 -3 7 8 7 78 10 91 30 105 12 8 33 26 47
40 14 14 31 24 39 22 8 -2 23 12 34 31 11 18 38 48 60 66 22 18 38 37 35 42
-4 5 -8 21 -11 34 -2 14 -7 37 -10 53 -12 51 -16 102 -9 102 4 0 16 -10 26
-22 17 -20 19 -20 10 -3 -6 11 -22 31 -36 44 -14 13 -25 29 -25 37 0 18 -33
38 -110 64 -36 12 -72 29 -81 36 -9 8 -43 19 -75 25 -71 13 -90 23 -85 41 5
20 9 45 4 31 -8 -23 -25 -14 -81 42 -31 31 -68 58 -82 61 -14 3 -50 11 -81 18
-31 7 -99 14 -150 15 -52 1 -109 6 -127 12 -23 8 -42 8 -64 0 -17 -6 -48 -11
-69 -11 -20 0 -39 -5 -41 -12 -3 -8 -14 -5 -33 11 -17 13 -31 18 -33 12 -6
-19 -31 -12 -43 12 -7 12 -17 25 -23 29 -19 13 -63 9 -76 -6 -7 -10 -22 -13
-43 -10 -74 13 -176 13 -183 2 -4 -7 -2 -14 4 -16 6 -2 8 -10 5 -18 -4 -12 -7
-12 -18 3 -10 13 -16 15 -27 6 -7 -7 -43 -14 -78 -16 -37 -2 -65 -8 -68 -15
-2 -7 -8 -10 -13 -6 -5 3 -9 -1 -9 -8 0 -10 -2 -10 -9 1 -12 18 -62 21 -68 4
-3 -7 -9 -13 -15 -13 -5 0 -6 5 -3 10 3 6 1 10 -4 10 -6 0 -11 -5 -11 -11 0
-6 -9 -8 -22 -3 -22 6 -22 6 -5 -13 24 -27 23 -63 -2 -63 -17 0 -20 -9 -23
-72 -2 -41 1 -76 7 -80 6 -4 -1 -8 -15 -9 -14 0 -34 -2 -45 -4 -18 -4 -85 21
-85 31 0 3 7 16 16 30 16 23 15 26 -2 45 -10 11 -25 19 -33 18 -34 -3 -77 14
-86 34 -11 23 -88 80 -124 92 -21 6 -22 5 -12 -14 10 -17 9 -21 -4 -21 -8 0
-15 5 -15 10 0 6 -9 10 -21 10 -11 0 -37 11 -57 25 l-37 25 -6 -27 c-7 -30 -8
-30 -15 4 -2 12 -13 37 -24 55 l-20 33 0 -28 c0 -24 -3 -27 -26 -23 -35 7 -72
-9 -85 -36 -9 -22 -16 -23 -121 -25 -85 -2 -118 1 -145 13 -18 9 -59 17 -91
18 -46 1 -58 5 -60 20 -2 11 0 16 6 12 22 -13 42 25 42 77 0 68 -8 80 -40 64
-22 -11 -26 -21 -30 -77 l-5 -65 -32 -2 c-27 -1 -33 2 -33 18 0 14 -7 19 -29
19 -17 0 -32 4 -35 8 -2 4 12 42 32 84 27 56 42 77 57 77 18 1 18 2 -3 17 -28
19 -28 28 1 42 15 7 17 11 6 11 -26 1 -51 83 -56 182 -4 75 -2 90 11 95 13 5
16 21 16 75 0 62 2 69 20 69 11 0 20 3 21 8 3 35 14 52 51 85 23 20 50 40 60
43 11 3 24 26 34 59 15 53 33 80 35 53 0 -7 14 14 29 47 16 33 29 52 30 43 0
-12 8 -18 24 -18 13 0 32 -3 42 -7 11 -4 15 -3 10 5 -3 6 -2 13 4 17 5 3 10
-1 10 -9 0 -27 15 -18 18 10 2 31 9 44 23 44 6 0 7 -5 4 -11 -5 -7 6 -9 31 -7
32 2 38 7 36 22 -2 10 1 15 7 12 6 -4 21 0 35 9 13 9 29 14 36 13 6 -2 19 16
28 39 20 48 32 64 32 40 0 -9 5 -17 12 -17 20 0 78 -44 79 -60 0 -10 3 -8 8 5
5 11 4 30 0 43 -16 41 1 78 34 73 4 0 7 8 7 19 0 11 6 20 13 21 6 0 20 2 29 4
10 2 21 -1 24 -6 3 -6 12 -2 20 8 15 20 18 34 7 32 -19 -3 -33 2 -33 11 0 5 6
7 13 5 7 -3 24 13 38 35 l26 40 7 -32 7 -33 13 31 c14 33 33 44 71 44 12 0 43
9 68 20 46 20 68 19 98 -7 14 -12 21 -11 48 4 30 18 41 46 21 58 -18 11 -11
22 23 33 48 15 55 14 59 -10z m2044 -245 c-2 -3 -14 -2 -27 2 -16 6 -18 9 -8
16 13 7 45 -9 35 -18z m-1169 -29 c-9 -9 -28 6 -21 18 4 6 10 6 17 -1 6 -6 8
-13 4 -17z m1103 22 c0 -2 -7 -9 -15 -16 -13 -11 -14 -10 -9 4 5 14 24 23 24
12z m30 -16 c0 -5 -5 -10 -11 -10 -5 0 -7 5 -4 10 3 6 8 10 11 10 2 0 4 -4 4
-10z m-2796 -45 c-4 -8 -8 -15 -10 -15 -2 0 -4 7 -4 15 0 8 4 15 10 15 5 0 7
-7 4 -15z m-119 -85 c3 -5 1 -10 -4 -10 -6 0 -11 5 -11 10 0 6 2 10 4 10 3 0
8 -4 11 -10z m2916 -55 c53 -8 98 -35 99 -56 0 -10 -103 22 -121 37 -8 8 -21
14 -28 14 -7 0 -9 5 -6 10 4 6 10 8 14 6 4 -3 23 -8 42 -11z m-186 -16 c15
-14 -7 -10 -35 7 l-25 15 25 -7 c14 -3 29 -10 35 -15z m435 -19 c0 -5 -5 -10
-11 -10 -5 0 -7 5 -4 10 3 6 8 10 11 10 2 0 4 -4 4 -10z m-245 -54 c38 -25 24
-30 -32 -13 -26 9 -67 19 -90 22 -39 6 -54 21 -37 37 8 9 129 -26 159 -46z
m123 -62 c2 -11 15 -25 30 -31 l27 -11 -32 -1 c-22 -1 -33 4 -33 13 0 7 -13
19 -30 26 -51 21 -55 37 -7 31 33 -5 43 -11 45 -27z m42 14 c0 -6 -6 -5 -15 2
-8 7 -15 14 -15 16 0 2 7 1 15 -2 8 -4 15 -11 15 -16z m80 2 c-20 -13 -33 -13
-25 0 3 6 14 10 23 10 15 0 15 -2 2 -10z m-30 -60 c0 -5 -7 -7 -15 -4 -8 4
-15 8 -15 10 0 2 7 4 15 4 8 0 15 -4 15 -10z m-215 -16 c47 -10 104 -45 98
-60 -3 -9 2 -14 15 -14 27 0 52 -10 52 -21 0 -5 -19 -6 -42 -3 -30 5 -39 4
-34 -4 4 -7 15 -12 25 -12 10 0 24 -7 31 -15 11 -13 5 -15 -41 -16 -30 -1 -57
-1 -60 -1 -3 1 -28 2 -55 3 -47 2 -144 42 -144 60 0 5 -14 16 -31 24 -59 31
-20 27 91 -9 107 -35 173 -47 140 -27 -8 6 -18 7 -22 5 -4 -3 -8 2 -8 10 0 9
6 16 14 16 8 0 16 6 19 13 3 9 -16 19 -64 31 -38 10 -67 22 -64 26 5 8 14 8
80 -6z m161 -349 c18 -14 17 -15 -11 -9 -37 8 -57 24 -29 24 11 0 29 -7 40
-15z m179 -33 c-8 -8 -25 10 -19 20 4 6 9 5 15 -3 4 -7 6 -15 4 -17z m-35 -92
c0 -5 -2 -10 -4 -10 -3 0 -8 5 -11 10 -3 6 -1 10 4 10 6 0 11 -4 11 -10z m290
-31 c0 -12 -57 -12 -64 0 -3 4 -3 10 -1 13 8 8 65 -4 65 -13z m-59 -74 c10 -4
19 -11 19 -16 0 -16 -37 -10 -61 11 l-24 19 23 -4 c13 -2 32 -7 43 -10z m76
-63 c8 -5 3 -11 -16 -19 -30 -11 -44 -7 -48 15 -3 13 44 17 64 4z m3 -42 c0
-5 -2 -10 -4 -10 -3 0 -8 5 -11 10 -3 6 -1 10 4 10 6 0 11 -4 11 -10z m167
-72 c-3 -8 -6 -5 -6 6 -1 11 2 17 5 13 3 -3 4 -12 1 -19z m-7 -88 c0 -5 -2
-10 -4 -10 -3 0 -8 5 -11 10 -3 6 -1 10 4 10 6 0 11 -4 11 -10z m-2233 -68
c-16 -20 -28 1 -21 37 l7 33 12 -28 c8 -20 9 -33 2 -42z m2150 -128 c-3 -3
-12 -4 -19 -1 -8 3 -5 6 6 6 11 1 17 -2 13 -5z m-2842 -124 c3 -5 1 -10 -4
-10 -6 0 -11 5 -11 10 0 6 2 10 4 10 3 0 8 -4 11 -10z m1775 0 c0 -5 -5 -10
-11 -10 -5 0 -7 5 -4 10 3 6 8 10 11 10 2 0 4 -4 4 -10z m-1750 -24 c0 -2 -7
-7 -16 -10 -8 -3 -12 -2 -9 4 6 10 25 14 25 6z m2550 -51 c11 -13 10 -14 -4
-9 -9 3 -16 10 -16 15 0 13 6 11 20 -6z m-3435 -265 c-3 -5 -12 -10 -18 -10
-7 0 -6 4 3 10 19 12 23 12 15 0z m3839 -126 c22 -9 20 -24 -3 -24 -26 0 -51
10 -51 21 0 10 31 12 54 3z m-2574 -128 c0 -9 -7 -12 -20 -9 -11 3 -17 9 -14
14 8 14 34 10 34 -5z m967 -48 c-3 -8 -6 -5 -6 6 -1 11 2 17 5 13 3 -3 4 -12
1 -19z m1851 -158 c45 -42 57 -48 65 -27 3 6 6 1 6 -11 1 -16 -6 -26 -20 -29
-16 -4 -20 -12 -17 -36 3 -33 -9 -43 -32 -26 -11 8 -12 12 -2 16 20 8 14 25
-7 18 -15 -5 -24 1 -35 24 -16 31 -22 111 -8 111 4 0 26 -18 50 -40z m-3708
-120 c0 -5 -2 -10 -4 -10 -3 0 -8 5 -11 10 -3 6 -1 10 4 10 6 0 11 -4 11 -10z
m3698 -130 c10 -17 10 -21 -4 -27 -18 -7 -48 23 -38 38 9 15 29 10 42 -11z
m22 -60 c13 -9 13 -11 1 -19 -14 -9 -51 6 -51 21 0 11 32 10 50 -2z m-630 -31
c0 -5 -12 -9 -27 -9 -27 1 -27 1 -9 15 19 14 36 12 36 -6z m-8 -63 c-3 -14 1
-17 12 -13 13 5 16 -1 16 -36 0 -47 -25 -128 -32 -106 -3 8 -9 11 -13 7 -5 -5
-1 -16 8 -26 15 -16 15 -21 2 -38 -8 -10 -15 -26 -15 -35 0 -25 -82 -170 -102
-180 -29 -16 -77 26 -85 76 -9 53 -7 99 6 103 6 2 11 12 11 23 0 18 2 18 24 4
22 -15 56 -12 56 5 0 4 -20 13 -45 20 -50 14 -56 29 -23 62 14 14 18 23 10 26
-24 8 -11 20 43 42 30 12 55 26 55 30 0 4 10 19 21 34 24 30 56 31 51 2z
m-322 -526 c0 -11 -4 -20 -9 -20 -7 0 -8 17 -2 38 4 10 11 -2 11 -18z m30 -15
c0 -8 -4 -15 -10 -15 -5 0 -10 7 -10 15 0 8 5 15 10 15 6 0 10 -7 10 -15z
m-430 -586 c0 -36 -22 -109 -31 -103 -5 3 -9 28 -9 55 0 31 4 48 10 44 6 -3
10 -1 10 4 0 6 -6 11 -12 11 -9 0 -8 3 2 9 18 12 30 5 30 -20z m-3045 -169 c3
-5 -1 -10 -9 -10 -9 0 -16 5 -16 10 0 6 4 10 9 10 6 0 13 -4 16 -10z m1272
-51 c7 -13 13 -20 13 -15 0 5 10 0 23 -11 12 -11 32 -24 44 -27 23 -7 37 -32
23 -41 -5 -3 -20 0 -35 7 -16 7 -29 8 -33 2 -6 -7 -89 -57 -100 -59 -1 0 -11
15 -22 33 -11 18 -24 31 -29 28 -5 -3 -20 5 -35 19 -20 18 -28 21 -32 11 -3
-7 -18 -13 -33 -12 -22 1 -27 5 -23 20 3 10 -1 22 -8 26 -7 4 9 7 36 7 27 -1
75 2 106 7 44 5 56 11 51 22 -9 25 41 10 54 -17z m1883 -189 c0 -5 -4 -10 -10
-10 -5 0 -10 5 -10 10 0 6 5 10 10 10 6 0 10 -4 10 -10z m-6 -67 c-14 -211
-32 -260 -129 -355 -38 -38 -76 -67 -84 -66 -18 4 -37 91 -21 96 6 2 10 16 11
30 0 22 2 24 8 8 6 -17 9 -16 25 9 14 21 15 29 6 35 -9 6 -5 13 14 25 14 10
26 26 26 36 0 10 5 21 10 24 6 3 10 15 10 26 0 10 4 19 8 19 5 0 15 19 22 41
8 23 22 46 32 52 12 8 15 19 11 36 -5 21 -3 23 16 18 11 -3 21 -1 21 4 0 5 4
9 9 9 4 0 7 -21 5 -47z m-1639 -83 c-3 -5 -13 -7 -23 -5 -9 2 -19 4 -22 4 -3
1 1 5 9 10 16 10 44 3 36 -9z m-635 -10 c0 -5 -4 -10 -10 -10 -5 0 -10 5 -10
10 0 6 5 10 10 10 6 0 10 -4 10 -10z m537 -10 c18 -14 30 -17 48 -10 26 10 35
5 35 -22 0 -10 7 -18 15 -18 8 0 15 5 15 11 0 7 11 0 24 -14 17 -19 30 -24 46
-20 15 4 21 2 17 -4 -7 -11 -87 -25 -127 -22 -56 4 -132 -6 -161 -21 -24 -13
-21 -14 -57 18 -35 32 -39 42 -18 42 23 0 29 20 12 39 -28 31 -18 38 55 39 57
1 77 -3 96 -18z m-424 -7 c18 -17 19 -17 28 0 11 18 39 24 39 7 0 -5 7 -10 15
-10 8 0 15 -9 15 -21 0 -26 -60 -81 -80 -73 -8 4 -35 11 -59 16 -27 6 -39 13
-31 18 9 6 9 9 0 15 -6 4 -14 4 -17 1 -9 -8 -33 14 -33 30 0 10 13 14 40 14
22 0 40 5 40 10 0 15 21 12 43 -7z m1067 -76 c17 -14 55 -81 65 -117 10 -37
45 -109 56 -116 5 -3 9 -14 9 -25 0 -14 -7 -19 -25 -19 -23 0 -25 -4 -25 -45
0 -36 -3 -45 -18 -45 -9 0 -28 -18 -42 -40 -19 -31 -26 -36 -33 -25 -18 32
-37 16 -37 -30 0 -39 -3 -45 -21 -45 -19 0 -70 -41 -146 -120 -29 -30 -40 -35
-81 -35 -29 0 -47 -4 -47 -12 0 -6 -13 -23 -28 -37 l-28 -26 -35 24 c-29 20
-41 22 -66 15 -17 -4 -35 -6 -39 -3 -5 3 -9 0 -9 -5 0 -6 -4 -11 -10 -11 -5 0
-10 8 -10 17 0 15 -2 14 -15 -3 -16 -19 -16 -19 -13 1 5 30 -19 44 -57 32 -26
-8 -40 -5 -83 17 -60 30 -62 31 -62 11 0 -8 7 -15 15 -15 24 0 17 -30 -7 -31
-41 -2 -53 2 -76 27 -17 20 -22 36 -21 72 2 51 -13 85 -46 101 -13 6 -15 10
-5 10 8 1 0 10 -17 21 -33 20 -46 44 -18 34 8 -3 29 -1 47 5 37 13 50 4 52
-35 1 -15 8 -30 16 -32 9 -3 11 1 6 13 -4 12 2 26 21 43 37 35 51 36 86 6 l29
-25 24 26 c13 14 30 25 37 25 18 0 29 26 22 54 -3 12 -2 16 1 10 6 -15 75 4
87 23 4 7 14 13 21 13 7 0 40 13 72 30 33 16 77 31 98 32 38 3 39 5 52 56 8
29 16 64 18 78 7 36 13 40 21 14 8 -25 31 -21 27 5 -2 10 1 14 7 10 6 -3 11
-1 11 4 0 6 15 17 33 24 17 8 38 21 46 30 7 9 17 15 21 12 4 -3 23 1 40 9 35
14 55 12 80 -7z m-1570 -167 c0 -5 13 -10 30 -10 36 0 76 -17 113 -47 16 -13
34 -23 41 -23 7 0 31 -14 52 -31 22 -18 60 -41 87 -52 26 -11 47 -26 47 -34 0
-8 16 -21 35 -29 24 -10 33 -19 28 -30 -4 -10 1 -17 16 -21 11 -3 21 -9 21
-14 0 -5 13 -9 28 -9 30 0 52 -16 52 -37 0 -7 -9 -13 -19 -13 -25 0 -31 -18
-21 -71 9 -48 3 -58 -40 -60 -49 -4 -85 3 -100 17 -12 12 -12 14 7 14 11 0 24
7 27 16 5 14 4 15 -8 5 -10 -9 -16 -9 -21 -1 -5 8 -11 7 -22 -1 -12 -11 -20
-7 -46 23 -36 40 -49 45 -162 58 -83 9 -124 24 -162 60 -12 11 -29 20 -38 20
-8 0 -15 7 -15 15 0 8 -4 15 -8 15 -4 0 -15 13 -25 29 -17 28 -17 30 2 36 10
3 21 17 24 31 3 20 -1 27 -18 34 -21 8 -22 13 -15 45 9 42 6 38 45 58 34 18
65 22 65 7z m-1726 -21 c-3 -5 5 -13 17 -17 14 -6 18 -11 11 -16 -6 -4 -21 -2
-32 4 -16 9 -20 8 -20 -6 0 -11 -5 -14 -17 -9 -10 4 -24 8 -30 8 -16 0 -16 7
0 28 19 26 87 33 71 8z m20 -145 c9 -3 16 -12 16 -20 0 -8 6 -14 14 -14 8 0
13 -8 11 -17 -2 -10 -4 -22 -4 -26 -1 -5 -5 -5 -11 -2 -14 9 -12 -11 3 -22 6
-6 24 -13 40 -17 28 -7 35 -20 17 -31 -6 -4 -17 -1 -25 5 -12 10 -15 9 -15 -3
0 -8 9 -17 20 -20 24 -6 39 -39 21 -45 -8 -3 -22 -13 -32 -23 -12 -12 -19 -15
-20 -6 0 6 -4 3 -8 -7 -4 -11 -15 -20 -24 -22 -28 -4 -22 58 8 88 l25 26 -25
4 c-17 4 -25 1 -25 -8 0 -8 -7 -15 -15 -15 -8 -1 -19 -3 -25 -4 -5 -1 -17 -3
-26 -4 -23 -2 -13 -36 11 -37 11 -1 26 -2 33 -3 22 -2 11 -64 -11 -67 -30 -4
-33 -14 -4 -14 35 0 35 -16 0 -25 -19 -4 -31 -2 -39 9 -12 17 -18 274 -6 292
18 27 64 40 96 28z m-1 -408 c4 -10 0 -14 -14 -13 -20 1 -24 9 -12 20 10 11
20 8 26 -7z"/>
<path d="M3525 6111 c3 -6 14 -8 25 -6 10 2 24 -3 31 -11 6 -8 19 -14 28 -14
12 0 10 5 -9 20 -25 20 -86 28 -75 11z"/>
<path d="M2870 6019 c0 -5 5 -7 10 -4 6 3 10 8 10 11 0 2 -4 4 -10 4 -5 0 -10
-5 -10 -11z"/>
<path d="M2900 5623 c0 -5 5 -15 10 -23 8 -12 10 -11 10 8 0 12 -4 22 -10 22
-5 0 -10 -3 -10 -7z"/>
<path d="M2180 5610 c0 -5 5 -10 11 -10 5 0 7 5 4 10 -3 6 -8 10 -11 10 -2 0
-4 -4 -4 -10z"/>
<path d="M1942 4765 c-1 -13 2 -26 6 -29 4 -2 9 6 10 19 1 13 -2 26 -6 29 -4
2 -9 -6 -10 -19z"/>
<path d="M1975 4769 c-4 -12 -2 -26 4 -32 8 -8 11 -2 11 21 0 37 -6 41 -15 11z"/>
<path d="M3451 4714 c0 -11 3 -14 6 -6 3 7 2 16 -1 19 -3 4 -6 -2 -5 -13z"/>
<path d="M3312 4690 c5 -16 30 -21 49 -9 11 7 11 9 -3 9 -9 0 -24 3 -34 7 -11
4 -15 2 -12 -7z"/>
<path d="M4215 4650 c-3 -5 -1 -10 4 -10 6 0 11 5 11 10 0 6 -2 10 -4 10 -3 0
-8 -4 -11 -10z"/>
<path d="M2950 4615 c0 -14 4 -25 9 -25 12 0 19 21 13 38 -8 21 -22 13 -22
-13z"/>
<path d="M4655 4460 c-3 -5 1 -10 10 -10 9 0 13 5 10 10 -3 6 -8 10 -10 10 -2
0 -7 -4 -10 -10z"/>
<path d="M5170 4050 c0 -5 5 -10 10 -10 6 0 10 5 10 10 0 6 -4 10 -10 10 -5 0
-10 -4 -10 -10z"/>
<path d="M2632 3092 c-25 -8 -10 -22 24 -22 23 0 34 4 32 12 -4 12 -35 17 -56
10z"/>
<path d="M2589 3013 c-5 -15 -12 -54 -14 -86 -2 -34 -9 -63 -16 -67 -10 -7 -9
-14 5 -34 9 -14 19 -26 22 -26 2 0 18 13 34 30 28 29 50 83 50 127 0 12 7 28
15 36 13 13 10 17 -19 31 -48 23 -65 20 -77 -11z"/>
<path d="M1782 2400 c0 -14 2 -19 5 -12 2 6 2 18 0 25 -3 6 -5 1 -5 -13z"/>
<path d="M3245 859 c-4 -6 -5 -12 -2 -15 2 -3 7 2 10 11 7 17 1 20 -8 4z"/>
<path d="M3869 6946 c8 -10 9 -16 1 -21 -5 -3 -10 -1 -10 5 0 7 -6 10 -14 7
-7 -3 -19 0 -25 6 -14 14 -14 5 1 -28 9 -20 17 -24 37 -21 14 2 36 5 48 5 18
1 22 6 20 23 -4 21 -26 36 -56 37 -10 1 -11 -2 -2 -13z"/>
<path d="M4040 6896 c0 -2 7 -9 15 -16 9 -7 15 -8 15 -2 0 5 -7 12 -15 16 -8
3 -15 4 -15 2z"/>
<path d="M3850 6850 c0 -5 7 -10 16 -10 8 0 12 5 9 10 -3 6 -10 10 -16 10 -5
0 -9 -4 -9 -10z"/>
<path d="M4094 6839 c-2 -4 17 -21 44 -38 26 -17 64 -47 85 -67 31 -30 49 -38
88 -42 38 -4 50 -1 55 11 11 29 -96 106 -148 107 -10 0 -18 5 -18 10 0 6 -9
10 -19 10 -11 0 -23 4 -26 10 -7 11 -54 10 -61 -1z"/>
<path d="M4264 6815 c11 -8 24 -15 30 -15 5 0 1 7 -10 15 -10 8 -23 14 -29 14
-5 0 -1 -6 9 -14z"/>
<path d="M4370 6666 c0 -2 7 -6 15 -10 8 -3 15 -1 15 4 0 6 -7 10 -15 10 -8 0
-15 -2 -15 -4z"/>
<path d="M4425 6660 c3 -5 14 -10 23 -10 15 0 15 2 2 10 -20 13 -33 13 -25 0z"/>
<path d="M4370 6632 c0 -4 -15 -12 -32 -17 -18 -6 -33 -14 -32 -20 0 -16 74
-53 120 -60 45 -6 70 -25 35 -25 -23 0 -29 -18 -8 -25 6 -2 36 -6 65 -10 54
-5 93 -20 91 -33 -4 -24 7 -33 61 -44 33 -6 60 -15 60 -20 0 -4 7 -5 15 -2 18
7 75 -32 75 -52 0 -8 -7 -14 -15 -14 -13 0 -13 -3 -3 -20 7 -11 19 -20 27 -20
8 0 11 -3 8 -6 -8 -9 32 -44 49 -44 7 0 25 -11 41 -23 17 -15 47 -26 78 -30
28 -4 61 -9 75 -12 24 -6 24 -6 6 9 -11 9 -36 18 -55 21 -20 4 -44 10 -53 15
-10 5 -24 7 -33 4 -8 -3 -15 -1 -15 5 0 10 13 14 53 14 31 -1 14 28 -32 53
-25 13 -49 30 -53 39 -5 8 -17 15 -26 15 -13 0 -14 2 -3 9 7 5 22 6 33 3 18
-4 37 11 38 30 0 7 -68 24 -82 20 -3 -1 -12 6 -20 15 -10 13 -11 17 0 21 10 3
10 7 0 20 -11 13 -11 14 2 7 13 -8 13 -7 0 10 -13 15 -15 16 -18 2 -2 -11 -10
-14 -30 -8 -15 4 -33 6 -39 5 -7 -1 -18 -2 -25 -3 -6 0 -3 -8 8 -16 18 -13 17
-14 -19 -15 -21 0 -52 7 -68 16 -25 13 -30 20 -25 40 6 23 4 24 -21 18 -23 -5
-26 -4 -16 6 10 11 23 11 64 2 28 -7 58 -12 66 -12 25 0 6 14 -25 18 -15 2
-35 12 -44 22 -19 21 -18 20 -143 50 -49 12 -100 28 -112 36 -13 8 -23 11 -23
6z m180 -124 c0 -6 -7 -7 -16 -4 -9 3 -20 6 -25 6 -5 0 -9 4 -9 9 0 4 11 6 25
3 14 -2 25 -9 25 -14z m265 -126 c-3 -3 -11 0 -18 7 -9 10 -8 11 6 5 10 -3 15
-9 12 -12z"/>
<path d="M4450 6424 c0 -7 110 -57 131 -60 9 0 24 5 34 12 10 8 14 14 9 14 -6
0 -15 -5 -22 -12 -9 -9 -12 -9 -12 0 0 7 -6 12 -14 12 -8 0 -33 9 -57 20 -44
20 -69 25 -69 14z"/>
<path d="M4600 6282 c0 -18 46 -61 92 -86 49 -27 113 -37 90 -14 -7 7 -12 20
-12 29 0 12 -17 22 -57 35 -32 9 -70 23 -85 31 -16 7 -28 10 -28 5z"/>
<path d="M4596 6237 c3 -10 9 -15 12 -12 3 3 0 11 -7 18 -10 9 -11 8 -5 -6z"/>
<path d="M5108 6193 c-2 -10 -1 -29 3 -43 4 -14 7 -19 8 -12 1 10 6 10 22 2
32 -18 34 -5 4 34 -32 42 -31 41 -37 19z"/>
<path d="M4948 6153 c6 -2 18 -2 25 0 6 3 1 5 -13 5 -14 0 -19 -2 -12 -5z"/>
<path d="M5872 5665 c7 -8 128 -8 135 -1 4 3 -27 6 -67 6 -40 0 -71 -2 -68 -5z"/>
<path d="M5830 5240 c0 -5 5 -10 11 -10 5 0 7 5 4 10 -3 6 -8 10 -11 10 -2 0
-4 -4 -4 -10z"/>
<path d="M6079 4798 c-7 -16 -2 -66 7 -75 18 -18 23 -16 19 7 -2 11 0 22 6 25
15 10 10 23 -11 35 -11 6 -21 9 -21 8z"/>
<path d="M6210 3881 c0 -6 5 -13 10 -16 6 -3 10 1 10 9 0 9 -4 16 -10 16 -5 0
-10 -4 -10 -9z"/>
<path d="M710 3855 c0 -14 5 -25 10 -25 6 0 10 11 10 25 0 14 -4 25 -10 25 -5
0 -10 -11 -10 -25z"/>
</g>
</svg>
